{
  "accessors": [
    {
      "bufferView": 2,
      "componentType": 5126,
      "count": 3917,
      "max": [
        1.7169170379638672,
        1.5644559860229492,
        3.0250134468078613
      ],
      "min": [
        -1.7169170379638672,
        -1.5487918853759766,
        -3.0250134468078613
      ],
      "type": "VEC3"
    },
    {
      "bufferView": 2,
      "byteOffset": 47004,
      "componentType": 5126,
      "count": 3917,
      "max": [
        0.9999997019767761,
        0.9999966621398926,
        0.9999459385871887
      ],
      "min": [
        -0.9999969005584717,
        -0.9999967217445374,
        -1.0
      ],
      "type": "VEC3"
    },
    {
      "bufferView": 3,
      "componentType": 5126,
      "count": 3917,
      "max": [
        0.999999463558197,
        0.9994432926177979,
        0.9999969005584717,
        1.0
      ],
      "min": [
        -1.0,
        -0.9994432926177979,
        -0.9999997019767761,
        -1.0
      ],
      "type": "VEC4"
    },
    {
      "bufferView": 1,
      "componentType": 5126,
      "count": 3917,
      "max": [
        0.9947897791862488,
        0.9963372945785522
      ],
      "min": [
        0.0038394294679164886,
        0.0046910494565963745
      ],
      "type": "VEC2"
    },
    {
      "bufferView": 0,
      "componentType": 5125,
      "count": 16560,
      "type": "SCALAR"
    }
  ],
  "asset": {
    "extras": {
      "author": "M3D (https://sketchfab.com/M3Drender)",
      "license": "CC-BY-4.0 (http://creativecommons.org/licenses/by/4.0/)",
      "source": "https://sketchfab.com/3d-models/chinese-vase-edf3b8ba31db414d832c936ef4e73f9e",
      "title": "Chinese Vase"
    },
    "generator": "Sketchfab-16.59.0",
    "version": "2.0"
  },
  "bufferViews": [
    {
      "buffer": 0,
      "byteLength": 66240,
      "name": "floatBufferViews",
      "target": 34963
    },
    {
      "buffer": 0,
      "byteLength": 31336,
      "byteOffset": 66240,
      "byteStride": 8,
      "name": "floatBufferViews",
      "target": 34962
    },
    {
      "buffer": 0,
      "byteLength": 94008,
      "byteOffset": 97576,
      "byteStride": 12,
      "name": "floatBufferViews",
      "target": 34962
    },
    {
      "buffer": 0,
      "byteLength": 62672,
      "byteOffset": 191584,
      "byteStride": 16,
      "name": "floatBufferViews",
      "target": 34962
    }
  ],
  "buffers": [
    {
      "byteLength": 254256,
      "uri": "scene.bin"
    }
  ],
  "images": [
    {
      "uri": "textures/Material_baseColor.png"
    },
    {
      "uri": "textures/Material_metallicRoughness.png"
    },
    {
      "uri": "textures/Material_normal.png"
    }
  ],
  "materials": [
    {
      "doubleSided": true,
      "name": "Material",
      "normalTexture": {
        "index": 2
      },
      "occlusionTexture": {
        "index": 1
      },
      "pbrMetallicRoughness": {
        "baseColorTexture": {
          "index": 0
        },
        "metallicRoughnessTexture": {
          "index": 1
        }
      }
    }
  ],
  "meshes": [
    {
      "name": "QBlock.006_Material_0",
      "primitives": [
        {
          "attributes": {
            "NORMAL": 1,
            "POSITION": 0,
            "TANGENT": 2,
            "TEXCOORD_0": 3
          },
          "indices": 4,
          "material": 0,
          "mode": 4
        }
      ]
    }
  ],
  "nodes": [
    {
      "children": [
        1
      ],
      "matrix": [
        0.1337474286556244,
        0.0,
        0.0,
        0.0,
        0.0,
        2.969789495557693e-17,
        -0.1337474286556244,
        0.0,
        0.0,
        0.1337474286556244,
        2.969789495557693e-17,
        0.0,
        0.0,
        0.0,
        0.0,
        1.0
      ],
      "name": "Sketchfab_model"
    },
    {
      "children": [
        2
      ],
      "matrix": [
        0.009999999776482582,
        0.0,
        0.0,
        0.0,
        0.0,
        0.0,
        0.009999999776482582,
        0.0,
        0.0,
        -0.009999999776482582,
        0.0,
        0.0,
        0.0,
        0.0,
        0.0,
        1.0
      ],
      "name": "7ce58dbaf5004365b793f049ddd497f3.fbx"
    },
    {
      "children": [
        3
      ],
      "name": "RootNode"
    },
    {
      "children": [
        4
      ],
      "matrix": [
        100.0,
        0.0,
        0.0,
        0.0,
        0.0,
        -1.629206793918314e-05,
        -99.99999999999868,
        0.0,
        0.0,
        99.99999999999868,
        -1.629206793918314e-05,
        0.0,
        934.0150756835938,
        302.5013427734375,
        -1253.3828125,
        1.0
      ],
      "name": "QBlock.006"
    },
    {
      "mesh": 0,
      "name": "QBlock.006_Material_0"
    }
  ],
  "samplers": [
    {
      "magFilter": 9729,
      "minFilter": 9987,
      "wrapS": 10497,
      "wrapT": 10497
    }
  ],
  "scene": 0,
  "scenes": [
    {
      "name": "Sketchfab_Scene",
      "nodes": [
        0
      ]
    }
  ],
  "textures": [
    {
      "sampler": 0,
      "source": 0
    },
    {
      "sampler": 0,
      "source": 1
    },
    {
      "sampler": 0,
      "source": 2
    }
  ]
}
