{
  "accessors": [
    {
      "bufferView": 2,
      "componentType": 5126,
      "count": 65532,
      "max": [
        0.9363269805908203,
        0.1525689959526062,
        0.4986090064048767
      ],
      "min": [
        -0.9969000220298767,
        -0.36858201026916504,
        -0.0696519985795021
      ],
      "type": "VEC3"
    },
    {
      "bufferView": 2,
      "byteOffset": 786384,
      "componentType": 5126,
      "count": 65532,
      "max": [
        0.9999902248382568,
        0.9999984502792358,
        0.9999942779541016
      ],
      "min": [
        -0.9999894499778748,
        -0.9999998211860657,
        -0.9999915361404419
      ],
      "type": "VEC3"
    },
    {
      "bufferView": 3,
      "componentType": 5126,
      "count": 65532,
      "max": [
        0.9999964833259583,
        0.9999980330467224,
        0.9999551177024841,
        1.0
      ],
      "min": [
        -0.9999861121177673,
        -0.9999533295631409,
        -0.9999997615814209,
        1.0
      ],
      "type": "VEC4"
    },
    {
      "bufferView": 1,
      "componentType": 5126,
      "count": 65532,
      "max": [
        0.9994140267372131,
        0.9953169822692871
      ],
      "min": [
        6.70000008540228e-05,
        0.00010800000018207356
      ],
      "type": "VEC2"
    },
    {
      "bufferView": 0,
      "componentType": 5125,
      "count": 350577,
      "type": "SCALAR"
    },
    {
      "bufferView": 2,
      "byteOffset": 1572768,
      "componentType": 5126,
      "count": 65532,
      "max": [
        0.9978820085525513,
        0.3661400079727173,
        0.1992119997739792
      ],
      "min": [
        -0.9976680278778076,
        -0.37114599347114563,
        -0.186258003115654
      ],
      "type": "VEC3"
    },
    {
      "bufferView": 2,
      "byteOffset": 2359152,
      "componentType": 5126,
      "count": 65532,
      "max": [
        0.999954104423523,
        0.9999999403953552,
        0.9999933242797852
      ],
      "min": [
        -0.9999757409095764,
        -0.999999463558197,
        -0.9999915361404419
      ],
      "type": "VEC3"
    },
    {
      "bufferView": 3,
      "byteOffset": 1048512,
      "componentType": 5126,
      "count": 65532,
      "max": [
        0.9999927878379822,
        0.9999939203262329,
        0.9999837279319763,
        1.0
      ],
      "min": [
        -0.9999978542327881,
        -0.9999924302101135,
        -0.9999843835830688,
        1.0
      ],
      "type": "VEC4"
    },
    {
      "bufferView": 1,
      "byteOffset": 524256,
      "componentType": 5126,
      "count": 65532,
      "max": [
        0.9998270273208618,
        0.9994120001792908
      ],
      "min": [
        5.900000178371556e-05,
        0.0036700000055134296
      ],
      "type": "VEC2"
    },
    {
      "bufferView": 0,
      "byteOffset": 1402308,
      "componentType": 5125,
      "count": 334509,
      "type": "SCALAR"
    },
    {
      "bufferView": 2,
      "byteOffset": 3145536,
      "componentType": 5126,
      "count": 65532,
      "max": [
        0.9967569708824158,
        0.374006986618042,
        0.01653599925339222
      ],
      "min": [
        -0.9926109910011292,
        -0.37593400478363037,
        -0.40544700622558594
      ],
      "type": "VEC3"
    },
    {
      "bufferView": 2,
      "byteOffset": 3931920,
      "componentType": 5126,
      "count": 65532,
      "max": [
        0.9999743700027466,
        0.9999977350234985,
        0.9999976754188538
      ],
      "min": [
        -0.9999974370002747,
        -0.9999943971633911,
        -0.9997867941856384
      ],
      "type": "VEC3"
    },
    {
      "bufferView": 3,
      "byteOffset": 2097024,
      "componentType": 5126,
      "count": 65532,
      "max": [
        0.9999030828475952,
        0.9999715089797974,
        0.9999963045120239,
        1.0
      ],
      "min": [
        -0.9999611377716064,
        -0.9999895691871643,
        -0.999984622001648,
        1.0
      ],
      "type": "VEC4"
    },
    {
      "bufferView": 1,
      "byteOffset": 1048512,
      "componentType": 5126,
      "count": 65532,
      "max": [
        0.9999629855155945,
        0.9988390207290649
      ],
      "min": [
        0.0002629999944474548,
        6.70000008540228e-05
      ],
      "type": "VEC2"
    },
    {
      "bufferView": 0,
      "byteOffset": 2740344,
      "componentType": 5125,
      "count": 331107,
      "type": "SCALAR"
    },
    {
      "bufferView": 2,
      "byteOffset": 4718304,
      "componentType": 5126,
      "count": 65532,
      "max": [
        0.9702159762382507,
        0.373991996049881,
        -0.021265000104904175
      ],
      "min": [
        -0.9860619902610779,
        -0.37478798627853394,
        -0.4950299859046936
      ],
      "type": "VEC3"
    },
    {
      "bufferView": 2,
      "byteOffset": 5504688,
      "componentType": 5126,
      "count": 65532,
      "max": [
        0.9999197721481323,
        0.9999818205833435,
        0.999987781047821
      ],
      "min": [
        -0.9999974370002747,
        -0.9999666213989258,
        -0.9999946355819702
      ],
      "type": "VEC3"
    },
    {
      "bufferView": 3,
      "byteOffset": 3145536,
      "componentType": 5126,
      "count": 65532,
      "max": [
        0.9999945759773254,
        0.9999951720237732,
        0.9999879598617554,
        1.0
      ],
      "min": [
        -0.9999488592147827,
        -0.9999833106994629,
        -0.9998878836631775,
        -1.0
      ],
      "type": "VEC4"
    },
    {
      "bufferView": 1,
      "byteOffset": 1572768,
      "componentType": 5126,
      "count": 65532,
      "max": [
        0.9999319911003113,
        0.9944900274276733
      ],
      "min": [
        1.2000000424450263e-05,
        0.00027799999224953353
      ],
      "type": "VEC2"
    },
    {
      "bufferView": 0,
      "byteOffset": 4064772,
      "componentType": 5125,
      "count": 322746,
      "type": "SCALAR"
    },
    {
      "bufferView": 2,
      "byteOffset": 6291072,
      "componentType": 5126,
      "count": 15360,
      "max": [
        0.9935410022735596,
        0.3728950023651123,
        -0.012772000394761562
      ],
      "min": [
        -0.9891989827156067,
        -0.37082600593566895,
        -0.15069299936294556
      ],
      "type": "VEC3"
    },
    {
      "bufferView": 2,
      "byteOffset": 6475392,
      "componentType": 5126,
      "count": 15360,
      "max": [
        0.9890971779823303,
        0.9999371767044067,
        0.9999752640724182
      ],
      "min": [
        -0.9957131147384644,
        -0.9998927116394043,
        -0.9999575018882751
      ],
      "type": "VEC3"
    },
    {
      "bufferView": 3,
      "byteOffset": 4194048,
      "componentType": 5126,
      "count": 15360,
      "max": [
        0.9999393820762634,
        0.9992997050285339,
        0.999794065952301,
        1.0
      ],
      "min": [
        -0.9996817708015442,
        -0.9999863505363464,
        -0.9973011612892151,
        -1.0
      ],
      "type": "VEC4"
    },
    {
      "bufferView": 1,
      "byteOffset": 2097024,
      "componentType": 5126,
      "count": 15360,
      "max": [
        0.9998549818992615,
        0.9942830204963684
      ],
      "min": [
        4.999999873689376e-06,
        0.0032160000409930944
      ],
      "type": "VEC2"
    },
    {
      "bufferView": 0,
      "byteOffset": 5355756,
      "componentType": 5125,
      "count": 53880,
      "type": "SCALAR"
    }
  ],
  "asset": {
    "extras": {
      "author": "codyyy (https://sketchfab.com/codyyy)",
      "license": "CC-BY-4.0 (http://creativecommons.org/licenses/by/4.0/)",
      "source": "https://sketchfab.com/3d-models/cluster-of-ancient-pots-4be96f412cfa4677abed7b69d216f8ea",
      "title": "Cluster Of Ancient Pots"
    },
    "generator": "Sketchfab-16.73.0",
    "version": "2.0"
  },
  "bufferViews": [
    {
      "buffer": 0,
      "byteLength": 5571276,
      "name": "floatBufferViews",
      "target": 34963
    },
    {
      "buffer": 0,
      "byteLength": 2219904,
      "byteOffset": 5571276,
      "byteStride": 8,
      "name": "floatBufferViews",
      "target": 34962
    },
    {
      "buffer": 0,
      "byteLength": 6659712,
      "byteOffset": 7791180,
      "byteStride": 12,
      "name": "floatBufferViews",
      "target": 34962
    },
    {
      "buffer": 0,
      "byteLength": 4439808,
      "byteOffset": 14450892,
      "byteStride": 16,
      "name": "floatBufferViews",
      "target": 34962
    }
  ],
  "buffers": [
    {
      "byteLength": 18890700,
      "uri": "scene.bin"
    }
  ],
  "images": [
    {
      "uri": "textures/Material.001_baseColor.png"
    },
    {
      "uri": "textures/Material.001_metallicRoughness.png"
    },
    {
      "uri": "textures/Material.001_normal.png"
    }
  ],
  "materials": [
    {
      "doubleSided": true,
      "name": "Material.001",
      "normalTexture": {
        "index": 2
      },
      "pbrMetallicRoughness": {
        "baseColorTexture": {
          "index": 0
        },
        "metallicRoughnessTexture": {
          "index": 1
        }
      }
    }
  ],
  "meshes": [
    {
      "name": "input_Material.001_0",
      "primitives": [
        {
          "attributes": {
            "NORMAL": 1,
            "POSITION": 0,
            "TANGENT": 2,
            "TEXCOORD_0": 3
          },
          "indices": 4,
          "material": 0,
          "mode": 4
        }
      ]
    },
    {
      "name": "input_Material.001_0",
      "primitives": [
        {
          "attributes": {
            "NORMAL": 6,
            "POSITION": 5,
            "TANGENT": 7,
            "TEXCOORD_0": 8
          },
          "indices": 9,
          "material": 0,
          "mode": 4
        }
      ]
    },
    {
      "name": "input_Material.001_0",
      "primitives": [
        {
          "attributes": {
            "NORMAL": 11,
            "POSITION": 10,
            "TANGENT": 12,
            "TEXCOORD_0": 13
          },
          "indices": 14,
          "material": 0,
          "mode": 4
        }
      ]
    },
    {
      "name": "input_Material.001_0",
      "primitives": [
        {
          "attributes": {
            "NORMAL": 16,
            "POSITION": 15,
            "TANGENT": 17,
            "TEXCOORD_0": 18
          },
          "indices": 19,
          "material": 0,
          "mode": 4
        }
      ]
    },
    {
      "name": "input_Material.001_0",
      "primitives": [
        {
          "attributes": {
            "NORMAL": 21,
            "POSITION": 20,
            "TANGENT": 22,
            "TEXCOORD_0": 23
          },
          "indices": 24,
          "material": 0,
          "mode": 4
        }
      ]
    }
  ],
  "nodes": [
    {
      "children": [
        1
      ],
      "matrix": [
        1.0,
        0.0,
        0.0,
        0.0,
        0.0,
        2.220446049250313e-16,
        -1.0,
        0.0,
        0.0,
        1.0,
        2.220446049250313e-16,
        0.0,
        0.0,
        0.0,
        0.0,
        1.0
      ],
      "name": "Sketchfab_model"
    },
    {
      "children": [
        2
      ],
      "matrix": [
        0.009999999776482582,
        0.0,
        0.0,
        0.0,
        0.0,
        0.0,
        0.009999999776482582,
        0.0,
        0.0,
        -0.009999999776482582,
        0.0,
        0.0,
        0.0,
        0.0,
        0.0,
        1.0
      ],
      "name": "A_cluster_of_ancient__0815111010_texture.fbx"
    },
    {
      "children": [
        3
      ],
      "name": "RootNode"
    },
    {
      "children": [
        4,
        5,
        6,
        7,
        8
      ],
      "matrix": [
        100.0,
        0.0,
        0.0,
        0.0,
        0.0,
        99.99999999999972,
        -7.5497901264043296e-06,
        0.0,
        0.0,
        7.5497901264043296e-06,
        99.99999999999972,
        0.0,
        0.0,
        0.0,
        0.0,
        1.0
      ],
      "name": "input"
    },
    {
      "mesh": 0,
      "name": "input_Material.001_0"
    },
    {
      "mesh": 1,
      "name": "input_Material.001_0"
    },
    {
      "mesh": 2,
      "name": "input_Material.001_0"
    },
    {
      "mesh": 3,
      "name": "input_Material.001_0"
    },
    {
      "mesh": 4,
      "name": "input_Material.001_0"
    }
  ],
  "samplers": [
    {
      "magFilter": 9729,
      "minFilter": 9987,
      "wrapS": 10497,
      "wrapT": 10497
    }
  ],
  "scene": 0,
  "scenes": [
    {
      "name": "Sketchfab_Scene",
      "nodes": [
        0
      ]
    }
  ],
  "textures": [
    {
      "sampler": 0,
      "source": 0
    },
    {
      "sampler": 0,
      "source": 1
    },
    {
      "sampler": 0,
      "source": 2
    }
  ]
}
